<svg xmlns="http://www.w3.org/2000/svg" viewBox="0 0 32 32"><defs><linearGradient id="a" x1="0%" x2="100%" y1="100%" y2="0%"><stop offset="0%" stop-color="#A60330"/><stop offset="100%" stop-color="#E41C38"/></linearGradient></defs><g fill="none" fill-rule="evenodd"><polygon fill="url(#a)" points="0 32 32 32 32 0 0 0"/><g fill="#FFFFFF" transform="translate(0 11.333)"><path d="M7.2 8.13s2.87 3.14 8.8 3.14c5.93 0 8.8-3.14 8.8-3.14s-3.6 2-8.8 2c-5.2 0-8.8-2-8.8-2"/><path d="M16 5.8C6 5.8 1.47 2 0 .53V1c1.47 2.4 6 8.4 16 8.4 10.07 0 14.67-6.27 16-8.4V.53C30.67 1.8 26 5.8 16 5.8"/></g></g></svg>